# xmcd
#
# Track frame offsets:
#	150
#	11687
#	22410
#	34927
#	49292
#	61147
#	81027
#	97807
#	104580
#	113060
#	121607
#	131980
#	140220
#	147407
#	155952
#	173835
#	185592
#	206495
#	217622
#	229270
#	239520
#	246355
#
# Disc length: 3435 seconds
#
# Revision: 2
# Processed by: cddbd v1.4PL0 Copyright (c) Steve Scherf et al.
# Submitted via: dBpowerAMP V4.0
#
DISCID=480d6916
DTITLE=Fats Domino - The Best Of Fats Domino
DYEAR=1900
DGENRE=blues
TTITLE0=The Fat Man
TTITLE1=Walking To New Orleans
TTITLE2=I m Walking
TTITLE3=I m In Love Again
TTITLE4=Blueberry Hill
TTITLE5=Let The Four Winds Blow
TTITLE6=Shake, Rattle And Roll
TTITLE7=Sentimental Journey
TTITLE8=When The Saints Go Marching In
TTITLE9=My Girl Josephine
TTITLE10=I Can t Go On
TTITLE11=My Toot Toot
TTITLE12=Poor Me
TTITLE13=I m Ready
TTITLE14=So Long
TTITLE15=I Want To Walk You Home
TTITLE16=Jambalaya
TTITLE17=Going To The River
TTITLE18=Blue Monday
TTITLE19=I m Gonna Be A Wheel Someday
TTITLE20=Whole Lotta Loving
TTITLE21=Ain t That A Shame
EXTD=
EXTT0=
EXTT1=
EXTT2=
EXTT3=
EXTT4=
EXTT5=
EXTT6=
EXTT7=
EXTT8=
EXTT9=
EXTT10=
EXTT11=
EXTT12=
EXTT13=
EXTT14=
EXTT15=
EXTT16=
EXTT17=
EXTT18=
EXTT19=
EXTT20=
EXTT21=
PLAYORDER=
